<?xml version="1.0" encoding="UTF-8" standalone="no"?>
<svg
   viewBox="0 0 512 512"
   version="1.1"
   id="svg1"
   sodipodi:docname="screenshot_logo.svg"
   inkscape:version="1.4 (e7c3feb100, 2024-10-09)"
   xmlns:inkscape="http://www.inkscape.org/namespaces/inkscape"
   xmlns:sodipodi="http://sodipodi.sourceforge.net/DTD/sodipodi-0.dtd"
   xmlns="http://www.w3.org/2000/svg"
   xmlns:svg="http://www.w3.org/2000/svg">
  <defs
     id="defs1">
    <filter
       id="a"
       x="-0.04734411"
       y="-0.081999999"
       width="1.0946882"
       height="1.164">
      <feGaussianBlur
         stdDeviation=".205"
         id="feGaussianBlur1" />
    </filter>
    <filter
       id="filter2"
       x="-0.047344111"
       y="-0.082000002"
       width="1.0946882"
       height="1.164">
      <feGaussianBlur
         stdDeviation=".205"
         id="feGaussianBlur2" />
    </filter>
  </defs>
  <sodipodi:namedview
     id="namedview1"
     pagecolor="#ffffff"
     bordercolor="#000000"
     borderopacity="0.25"
     inkscape:showpageshadow="2"
     inkscape:pageopacity="0.0"
     inkscape:pagecheckerboard="0"
     inkscape:deskcolor="#d1d1d1"
     inkscape:zoom="1.3945312"
     inkscape:cx="245.2437"
     inkscape:cy="273.56863"
     inkscape:window-width="1920"
     inkscape:window-height="1004"
     inkscape:window-x="0"
     inkscape:window-y="0"
     inkscape:window-maximized="1"
     inkscape:current-layer="svg1" />
  <!--!Font Awesome Free 6.7.2 by @fontawesome - https://fontawesome.com License - https://fontawesome.com/license/free Copyright 2025 Fonticons, Inc.-->
  <path
     d="M352 256c0 22.2-1.2 43.6-3.3 64l-185.3 0c-2.2-20.4-3.3-41.8-3.3-64s1.2-43.6 3.3-64l185.3 0c2.2 20.4 3.3 41.8 3.3 64zm28.8-64l123.1 0c5.3 20.5 8.1 41.9 8.1 64s-2.8 43.5-8.1 64l-123.1 0c2.1-20.6 3.2-42 3.2-64s-1.1-43.4-3.2-64zm112.6-32l-116.7 0c-10-63.9-29.8-117.4-55.3-151.6c78.3 20.7 142 77.5 171.9 151.6zm-149.1 0l-176.6 0c6.1-36.4 15.5-68.6 27-94.7c10.5-23.6 22.2-40.7 33.5-51.5C239.4 3.2 248.7 0 256 0s16.6 3.2 27.8 13.8c11.3 10.8 23 27.9 33.5 51.5c11.6 26 20.9 58.2 27 94.7zm-209 0L18.6 160C48.6 85.9 112.2 29.1 190.6 8.4C165.1 42.6 145.3 96.1 135.3 160zM8.1 192l123.1 0c-2.1 20.6-3.2 42-3.2 64s1.1 43.4 3.2 64L8.1 320C2.8 299.5 0 278.1 0 256s2.8-43.5 8.1-64zM194.7 446.6c-11.6-26-20.9-58.2-27-94.6l176.6 0c-6.1 36.4-15.5 68.6-27 94.6c-10.5 23.6-22.2 40.7-33.5 51.5C272.6 508.8 263.3 512 256 512s-16.6-3.2-27.8-13.8c-11.3-10.8-23-27.9-33.5-51.5zM135.3 352c10 63.9 29.8 117.4 55.3 151.6C112.2 482.9 48.6 426.1 18.6 352l116.7 0zm358.1 0c-30 74.1-93.6 130.9-171.9 151.6c25.5-34.2 45.2-87.7 55.3-151.6l116.7 0z"
     id="path1" />
  <g
     id="g14"
     transform="matrix(6.8260499,0,0,6.8260499,88.761777,77.529512)">
    <path
       fill="#e9b96e"
       stroke="#573a0d"
       d="M 3.464,22 V 34 L 24.5,46.145 45.5,33.73 V 22.269 L 24.249,10 Z"
       id="path1-5" />
    <g
       stroke="#2e3436"
       id="g3">
      <path
         fill="#2e3436"
         d="m 8.5,30.907 -2,-1.155 v 6 L 17.321,42 V 40 L 15.589,39 V 37 L 13.5,35.794 v -4 l -5,-2.887 z"
         id="path2" />
      <path
         fill="#555753"
         d="m 6.928,36 3.464,-2 3.464,2 1.644,0.949 v 2 l 2,1.155 v 2 z"
         id="path3" />
    </g>
    <g
       stroke-linejoin="round"
       id="g6">
      <path
         fill="#fce94f"
         stroke="#625802"
         d="m 25.981,19 5.519,3.187 v 2 l 6.594,3.813 3.469,-2 3.938,-2.269 v 2.539 -4 L 32.909,15 Z"
         id="path4" />
      <path
         fill="#e9b96e"
         stroke="#573a0d"
         stroke-dashoffset="0.5"
         d="m 24.84,18.341 8.66,-5 v 2 l -8.66,5 z"
         id="path5" />
      <path
         fill="#73d216"
         stroke="#325b09"
         d="M 25.981,9 3.464,22 17.5,30.104 l 14,-7.917 -6.66,-3.845 8.66,-5 z"
         id="path6" />
    </g>
    <path
       fill="#729fcf"
       stroke="#19314b"
       d="m 17.5,32.104 v 2 L 19.053,35 v 2 l 5.447,3.145 12,-7.072 v -2.147 l 2,-1.155 v -1.544 l -7,-4.041 -14,7.917 z"
       id="path7" />
    <path
       fill="#2e3436"
       d="m 13.856,20 6.928,4 -6.928,4 -6.928,-4 z"
       filter="url(#a)"
       opacity="0.25"
       id="path8" />
    <path
       fill="#c17d11"
       stroke="#8f5902"
       d="m 12.124,23 1.732,1 1.732,-1 v -6 l -1.732,-1 -1.732,1 z"
       id="path9" />
    <path
       fill="#4e9a06"
       stroke="#316004"
       d="M 6.5,15.753 13.856,20 20.5,16.164 V 7.836 L 13.856,4 6.5,8.247 Z"
       id="path10" />
    <path
       fill="#2e3436"
       d="m 13.856,20 5.196,3 -5.196,3 -5.196,-3 z"
       filter="url(#a)"
       opacity="0.25"
       transform="translate(24.249)"
       id="path11" />
    <path
       fill="#4e9a06"
       stroke="#316004"
       d="M 36.5,23.073 38.105,24 39.5,23.195 V 14.806 L 38.105,14 36.5,15.073 Z"
       id="path12" />
    <path
       fill="none"
       stroke="#ef2929"
       stroke-dasharray="0.5, 0.5"
       stroke-dashoffset="0.25"
       stroke-width="0.5"
       d="M 12.124,33 11.258,32.5"
       id="path13" />
    <path
       fill="#888a85"
       stroke="#2e3436"
       stroke-dashoffset="0.5"
       d="m 45.5,26.731 -4,2.309 v 1 l -2,1.155 v 2 l -2,1.155 v 4 l 8,-4.619 z"
       id="path14" />
  </g>
</svg>
